# xmcd
#
# Track frame offsets:
#	150
#	18110
#	34570
#	50800
#	71086
#	90369
#	106458
#	120923
#	138646
#	155394
#	179737
#	196069
#	212546
#	230526
#	244891
#	262465
#	278141
#
# Disc length: 3944 seconds
#
# Revision: 0
# Processed by: cddbd v1.5.2PL0 Copyright (c) Steve Scherf et al.
# Submitted via: audiograbber 1.83.01
#
DISCID=f30f6611
DTITLE=Sarah Connor - Green Eyed Soul
DYEAR=2001
DGENRE=
TTITLE0=Let' Get Back To Bad - Boy! (feat. TQ)
TTITLE1=If U Were My Man
TTITLE2=French Kissing
TTITLE3=Magic Ride (What'ever U Wish 4) (Guest feat. by TQ)
TTITLE4=From Sarah With Love
TTITLE5=Make U High
TTITLE6=In My House
TTITLE7=Where Do We Go From Here
TTITLE8=I Can't Lie
TTITLE9=Imagining
TTITLE10=Every Little Thing
TTITLE11=Undressed
TTITLE12=Can't Get None
TTITLE13=Man Of My Dreams
TTITLE14=Let Us Come 2gether
TTITLE15=When I Dream
TTITLE16=Let' Get Back To Bad - Boy! (Gena B. Good-Remix)
EXTD=
EXTT0=
EXTT1=
EXTT2=
EXTT3=
EXTT4=
EXTT5=
EXTT6=
EXTT7=
EXTT8=
EXTT9=
EXTT10=
EXTT11=
EXTT12=
EXTT13=
EXTT14=
EXTT15=
EXTT16=
PLAYORDER=
